<svg width="75" height="44" viewBox="0 0 75 44" fill="none" xmlns="http://www.w3.org/2000/svg">
<g id="light-dark">
<g id="Group 373">
<g id="Group 374">
<path id="Path 252" d="M53 0H22.583C16.7482 0 11.1525 2.31785 7.02666 6.44365C2.90086 10.5695 0.583008 16.1652 0.583008 22C0.583008 27.8348 2.90086 33.4305 7.02666 37.5564C11.1525 41.6822 16.7482 44 22.583 44H53C58.8348 44 64.4306 41.6822 68.5564 37.5564C72.6822 33.4305 75 27.8348 75 22C75 16.1652 72.6822 10.5695 68.5564 6.44365C64.4306 2.31785 58.8348 0 53 0ZM53 42.617H22.583C17.115 42.617 11.871 40.4449 8.00459 36.5784C4.13815 32.712 1.96601 27.468 1.96601 22C1.96601 16.532 4.13815 11.288 8.00459 7.42158C11.871 3.55514 17.115 1.383 22.583 1.383H53C58.468 1.383 63.712 3.55514 67.5784 7.42158C71.4449 11.288 73.617 16.532 73.617 22C73.617 27.468 71.4449 32.712 67.5784 36.5784C63.712 40.4449 58.468 42.617 53 42.617Z" fill="#A5ACBC"/>
<path id="Path 253" d="M6.59717 22C6.59717 25.2523 7.56159 28.4316 9.36848 31.1358C11.1754 33.84 13.7436 35.9477 16.7483 37.1923C19.7531 38.4369 23.0594 38.7625 26.2492 38.128C29.4391 37.4935 32.3691 35.9274 34.6688 33.6277C36.9686 31.3279 38.5347 28.3979 39.1692 25.2081C39.8037 22.0182 39.4781 18.7119 38.2334 15.7072C36.9888 12.7024 34.8812 10.1342 32.177 8.32731C29.4728 6.52042 26.2935 5.556 23.0412 5.556C18.6799 5.556 14.4974 7.28849 11.4135 10.3723C8.32966 13.4562 6.59717 17.6388 6.59717 22Z" fill="#E76224"/>
<path id="Path 254" d="M21.1961 17.447C20.9502 18.3339 20.9442 19.2702 21.1786 20.1602C21.413 21.0502 21.8794 21.8621 22.5302 22.5129C23.181 23.1637 23.9928 23.6301 24.8828 23.8645C25.7729 24.0989 26.7091 24.0928 27.596 23.847C27.2909 24.5979 26.8046 25.2616 26.1806 25.7789C25.5566 26.2963 24.8143 26.6511 24.0199 26.8119C23.2254 26.9727 22.4035 26.9344 21.6275 26.7004C20.8515 26.4664 20.1454 26.044 19.5722 25.4708C18.9991 24.8977 18.5767 24.1916 18.3427 23.4156C18.1087 22.6395 18.0704 21.8176 18.2311 21.0232C18.3919 20.2288 18.7468 19.4864 19.2641 18.8624C19.7814 18.2385 20.4452 17.7522 21.1961 17.447ZM23.041 15.686C21.7923 15.686 20.5715 16.0563 19.5332 16.7501C18.4949 17.4439 17.6856 18.43 17.2077 19.5837C16.7298 20.7375 16.6047 22.007 16.8484 23.2318C17.092 24.4566 17.6934 25.5816 18.5764 26.4647C19.4594 27.3477 20.5845 27.9491 21.8093 28.1927C23.034 28.4363 24.3036 28.3113 25.4573 27.8334C26.611 27.3555 27.5972 26.5462 28.2909 25.5079C28.9847 24.4695 29.3551 23.2488 29.3551 22C29.3532 21.6808 29.3298 21.3621 29.2851 21.046C28.9645 21.4929 28.5506 21.8648 28.072 22.1357C27.5934 22.4066 27.0616 22.5702 26.5135 22.6151C25.9653 22.6599 25.414 22.5849 24.8977 22.3954C24.3815 22.2058 23.9126 21.9062 23.5237 21.5173C23.1348 21.1284 22.8352 20.6596 22.6457 20.1433C22.4561 19.627 22.3812 19.0757 22.426 18.5276C22.4708 17.9794 22.6344 17.4476 22.9054 16.969C23.1763 16.4904 23.5481 16.0765 23.9951 15.756C23.679 15.7113 23.3603 15.6879 23.041 15.686Z" fill="white"/>
</g>
</g>
</g>
</svg>
